<svg width="19" height="19" viewBox="0 0 19 19" fill="none" xmlns="http://www.w3.org/2000/svg">
<path d="M8.56991 15.8332H4.61126C4.42664 15.8332 4.27164 15.7706 4.14624 15.6456C4.02084 15.5202 3.95814 15.365 3.95814 15.1801V9.5H2.43434C2.2893 9.5 2.18702 9.43065 2.12749 9.29195C2.06827 9.15357 2.09804 9.03165 2.21679 8.9262L9.06439 2.77068C9.18314 2.65193 9.32833 2.59255 9.49996 2.59255C9.67159 2.59255 9.81679 2.65193 9.93554 2.77068L13.2012 5.66058V4.09688C13.2012 3.91226 13.2639 3.75393 13.3893 3.62188C13.5143 3.48983 13.6694 3.4238 13.8543 3.4238H14.3887C14.5733 3.4238 14.7283 3.48983 14.8537 3.62188C14.9791 3.75393 15.0418 3.91226 15.0418 4.09688V7.34255L16.7831 8.9262C16.9019 9.03165 16.9317 9.15357 16.8724 9.29195C16.8129 9.43065 16.7106 9.5 16.5656 9.5H15.0418V15.1801C15.0418 15.365 14.9791 15.5202 14.8537 15.6456C14.7283 15.7706 14.5733 15.8332 14.3887 15.8332H10.43V11.0832H8.56991V15.8332ZM5.28434 14.5075H7.26366V10.4301C7.26366 10.2454 7.32636 10.0871 7.45176 9.95505C7.57684 9.82332 7.73185 9.75745 7.91679 9.75745H11.0831C11.2681 9.75745 11.4231 9.82332 11.5482 9.95505C11.6736 10.0871 11.7363 10.2454 11.7363 10.4301V14.5075H13.7156V7.95625L9.49996 4.1363L5.28434 7.95625V14.5075ZM7.85741 7.79808H11.1425C11.1425 7.36266 10.9777 7.00641 10.648 6.72933C10.3181 6.45224 9.93538 6.3137 9.49996 6.3137C9.06454 6.3137 8.68185 6.45224 8.35189 6.72933C8.02224 7.00641 7.85741 7.36266 7.85741 7.79808V7.79808ZM7.91679 9.75745H11.0831H7.91679Z" fill="#666666"/>
</svg>
