<svg width="16" height="16" viewBox="0 0 16 16" fill="none" xmlns="http://www.w3.org/2000/svg">
<path d="M1.0832 13.3332C0.7832 13.3332 0.527733 13.2249 0.3168 13.0084C0.1056 12.7916 0 12.5277 0 12.2168H2.45C2.15 12.2168 1.89173 12.1084 1.6752 11.8916C1.4584 11.6751 1.35 11.4168 1.35 11.1168V3.1168C1.35 2.8168 1.4584 2.5556 1.6752 2.3332C1.89173 2.11107 2.15 2 2.45 2H13.55C13.85 2 14.1083 2.11107 14.3248 2.3332C14.5416 2.5556 14.65 2.8168 14.65 3.1168V11.1168C14.65 11.4168 14.5416 11.6751 14.3248 11.8916C14.1083 12.1084 13.85 12.2168 13.55 12.2168H16C16 12.5277 15.8917 12.7916 15.6752 13.0084C15.4584 13.2249 15.1944 13.3332 14.8832 13.3332H1.0832ZM8 12.8668C8.16667 12.8668 8.30827 12.8084 8.4248 12.6916C8.5416 12.5751 8.6 12.4335 8.6 12.2668C8.6 12.1001 8.5416 11.9584 8.4248 11.8416C8.30827 11.7251 8.16667 11.6668 8 11.6668C7.83333 11.6668 7.69173 11.7251 7.5752 11.8416C7.4584 11.9584 7.4 12.1001 7.4 12.2668C7.4 12.4335 7.4584 12.5751 7.5752 12.6916C7.69173 12.8084 7.83333 12.8668 8 12.8668ZM2.45 11.1168H13.55V3.1168H2.45V11.1168ZM2.45 11.1168V3.1168V11.1168Z" fill="#666666"/>
</svg>
