<svg width="18" height="18" viewBox="0 0 18 18" fill="none" xmlns="http://www.w3.org/2000/svg">
<path d="M8.98109 15.5623C8.88119 15.5623 8.78129 15.553 8.68139 15.5344C8.58119 15.5155 8.48114 15.4749 8.38124 15.4125L4.25609 13.1625C4.05629 13.05 3.90014 12.8968 3.78764 12.703C3.67514 12.5092 3.61889 12.2937 3.61889 12.0564V8.3061L1.74374 7.2936C1.63124 7.2312 1.54994 7.1532 1.49984 7.0596C1.45004 6.9657 1.42514 6.8625 1.42514 6.75C1.42514 6.6375 1.45004 6.5343 1.49984 6.4404C1.54994 6.3468 1.63124 6.2688 1.74374 6.2064L8.38124 2.5875C8.48114 2.5251 8.58119 2.4813 8.68139 2.4561C8.78129 2.4312 8.88119 2.41875 8.98109 2.41875C9.09359 2.41875 9.19994 2.4312 9.30014 2.4561C9.40004 2.4813 9.49379 2.5251 9.58139 2.5875L16.9123 6.56235C17.0248 6.62505 17.1093 6.70635 17.1657 6.80625C17.2218 6.90615 17.2498 7.01235 17.2498 7.12485V12.0938C17.2498 12.2686 17.1906 12.4155 17.0721 12.5343C16.9533 12.6531 16.8063 12.7125 16.6311 12.7125C16.4436 12.7125 16.2906 12.6531 16.1721 12.5343C16.0533 12.4155 15.9939 12.2686 15.9939 12.0938V7.46235L14.3626 8.3061V12.0564C14.3626 12.2937 14.3032 12.5092 14.1844 12.703C14.0656 12.8968 13.9062 13.05 13.7061 13.1625L9.58139 15.4125C9.49379 15.4749 9.40004 15.5155 9.30014 15.5344C9.19994 15.553 9.09359 15.5623 8.98109 15.5623ZM8.98109 9.82485L14.6439 6.75L8.98109 3.7125L3.35609 6.75L8.98109 9.82485ZM8.98109 14.3248L13.1062 12.0749V9.0189L9.59984 10.9314C9.49994 10.9812 9.40004 11.0187 9.30014 11.0439C9.19994 11.0688 9.09359 11.0812 8.98109 11.0812C8.88119 11.0812 8.78129 11.0688 8.68139 11.0439C8.58119 11.0187 8.48744 10.9812 8.40014 10.9314L4.85639 9V12.0749L8.98109 14.3248Z" fill="#666666"/>
</svg>
