<svg width="16" height="16" viewBox="0 0 16 16" fill="none" xmlns="http://www.w3.org/2000/svg">
<path d="M2.44999 14C2.14999 14 1.88892 13.8889 1.66679 13.6668C1.44439 13.4444 1.33319 13.1832 1.33319 12.8832V5.1168C1.33319 4.8168 1.44439 4.5556 1.66679 4.3332C1.88892 4.11107 2.14999 4 2.44999 4H5.33319V2.45C5.33319 2.15 5.44439 1.88893 5.66679 1.6668C5.88892 1.4444 6.14999 1.3332 6.44999 1.3332H9.54999C9.84999 1.3332 10.1111 1.4444 10.3332 1.6668C10.5556 1.88893 10.6668 2.15 10.6668 2.45V4H13.55C13.85 4 14.1111 4.11107 14.3332 4.3332C14.5556 4.5556 14.6668 4.8168 14.6668 5.1168V12.8832C14.6668 13.1832 14.5556 13.4444 14.3332 13.6668C14.1111 13.8889 13.85 14 13.55 14H2.44999ZM2.44999 12.8832H13.55V5.1168H2.44999V12.8832ZM6.44999 4H9.54999V2.45H6.44999V4ZM2.44999 12.8832V5.1168V12.8832Z" fill="#666666"/>
</svg>
